<svg width="75" height="75" viewBox="0 0 75 75" fill="none" xmlns="http://www.w3.org/2000/svg">
<path d="M5.13281 0.585938L11.0244 66.7283L37.4607 74.0994L63.9709 66.7014L69.8672 0.585938H5.13281ZM57.6275 15.7395L55.6664 37.7736L55.6723 37.8926L55.6641 38.1662V38.1639L54.2707 53.5705L54.1172 54.9393L37.5 59.5354L37.4871 59.5471L20.8986 54.9252L19.7754 42.1875H27.91L28.4871 48.6645L37.5023 51.1078L37.5 51.1125V51.1113L46.5486 48.6334L47.5049 38.0859H28.5891L28.4268 36.3029L28.057 32.1258L27.8631 29.8828H48.2238L48.9645 21.6797H17.9531L17.7908 19.8979L17.4217 15.7195L17.2271 13.4766H57.8215L57.6275 15.7395Z" fill="#BEE9E8"/>
</svg>
