<svg width="75" height="75" viewBox="0 0 75 75" fill="none" xmlns="http://www.w3.org/2000/svg">
<path d="M26.5 75C33.4186 75 39 69.4186 39 62.5V50H26.5C19.5814 50 14 55.5814 14 62.5C14 69.4186 19.5814 75 26.5 75ZM14 37.5C14 30.5814 19.5814 25 26.5 25H39V50H26.5C19.5814 50 14 44.4186 14 37.5ZM14 12.5C14 5.5814 19.5814 0 26.5 0H39V25H26.5C19.5814 25 14 19.4186 14 12.5ZM39 0H51.5C58.4186 0 64 5.5814 64 12.5C64 19.4186 58.4186 25 51.5 25H39V0ZM64 37.5C64 44.4186 58.4186 50 51.5 50C44.5814 50 39 44.4186 39 37.5C39 30.5814 44.5814 25 51.5 25C58.4186 25 64 30.5814 64 37.5Z" fill="#BEE9E8"/>
</svg>
