<svg width="60" height="59" viewBox="0 0 60 59" fill="none" xmlns="http://www.w3.org/2000/svg">
<path d="M30 0C13.435 0 0 13.4442 0 30.0261C0 43.2926 8.595 54.5474 20.5175 58.5183C22.015 58.7961 22.5 57.8653 22.5 57.0746V51.4847C14.155 53.3013 12.4175 47.9416 12.4175 47.9416C11.0525 44.4711 9.085 43.5478 9.085 43.5478C6.3625 41.6837 9.2925 41.7237 9.2925 41.7237C12.305 41.9339 13.89 44.8189 13.89 44.8189C16.565 49.4079 20.9075 48.0818 22.62 47.3136C22.8875 45.3744 23.665 44.0483 24.525 43.3001C17.8625 42.5369 10.8575 39.9622 10.8575 28.4597C10.8575 25.1794 12.03 22.502 13.9475 20.4002C13.6375 19.6421 12.61 16.5869 14.24 12.4533C14.24 12.4533 16.76 11.6476 22.4925 15.531C24.885 14.8654 27.45 14.5326 30 14.5201C32.55 14.5326 35.1175 14.8654 37.515 15.531C43.2425 11.6476 45.7575 12.4533 45.7575 12.4533C47.39 16.5894 46.3625 19.6446 46.0525 20.4002C47.9775 22.502 49.14 25.1819 49.14 28.4597C49.14 39.9922 42.1225 42.5319 35.4425 43.2751C36.5175 44.2059 37.5 46.0325 37.5 48.8349V57.0746C37.5 57.8728 37.98 58.8111 39.5025 58.5158C51.415 54.5399 60 43.2876 60 30.0261C60 13.4442 46.5675 0 30 0Z" fill="#BEE9E8"/>
</svg>
