<svg width="75" height="75" viewBox="0 0 75 75" fill="none" xmlns="http://www.w3.org/2000/svg">
<path d="M26.1269 2.46704C18.6332 5.06666 12.1707 10.0008 7.68858 16.5448C3.20644 23.0887 0.940925 30.8976 1.22482 38.8243C1.50871 46.7509 4.32704 54.3777 9.26584 60.5842C14.2046 66.7908 21.0036 71.25 28.664 73.3069C34.8745 74.9094 41.3813 74.9798 47.625 73.512C53.2811 72.2415 58.5104 69.5239 62.8007 65.6252C67.266 61.4437 70.5072 56.1241 72.1757 50.2385C73.9887 43.838 74.3114 37.1073 73.1191 30.5627H38.2441V45.0295H58.4414C58.0377 47.3369 57.1727 49.5391 55.8981 51.5043C54.6235 53.4696 52.9655 55.1575 51.0234 56.467C48.5574 58.0991 45.7771 59.1968 42.8613 59.6897C39.9371 60.2336 36.9378 60.2336 34.0136 59.6897C31.0497 59.0776 28.2459 57.8543 25.7812 56.0979C21.8211 53.2947 18.8477 49.3123 17.2851 44.719C15.6966 40.0396 15.6966 34.9668 17.2851 30.2873C18.3974 27.0074 20.2361 24.021 22.664 21.551C25.4425 18.6726 28.9601 16.6151 32.8309 15.6042C36.7018 14.5933 40.7763 14.6682 44.6074 15.8206C47.6003 16.7389 50.3372 18.3441 52.5996 20.5081C54.8769 18.2424 57.1503 15.9709 59.4199 13.6936C60.5918 12.469 61.8691 11.303 63.0234 10.0491C59.5695 6.83531 55.5155 4.33445 51.0937 2.68969C43.0412 -0.234194 34.2303 -0.312771 26.1269 2.46704Z" fill="#BEE9E8"/>
</svg>
