<svg width="60" height="61" viewBox="0 0 60 61" fill="none" xmlns="http://www.w3.org/2000/svg">
<path d="M8 0.571289C3.58172 0.571289 0 4.15301 0 8.57129V52.5713C0 56.9896 3.58172 60.5713 8 60.5713H52C56.4183 60.5713 60 56.9896 60 52.5713V8.57129C60 4.15301 56.4183 0.571289 52 0.571289H8ZM20 48.0713H12.5V20.5713H20V48.0713ZM16.25 17.4013C13.835 17.4013 11.875 15.4263 11.875 12.9913C11.875 10.5563 13.835 8.58129 16.25 8.58129C18.665 8.58129 20.625 10.5563 20.625 12.9913C20.625 15.4263 18.6675 17.4013 16.25 17.4013ZM50 48.0713H42.5V34.0613C42.5 25.6413 32.5 26.2788 32.5 34.0613V48.0713H25V20.5713H32.5V24.9838C35.9925 18.5188 50 18.0413 50 31.1738V48.0713Z" fill="#BEE9E8"/>
</svg>
