<svg width="75" height="75" viewBox="0 0 75 75" fill="none" xmlns="http://www.w3.org/2000/svg">
<g clip-path="url(#clip0_76_43)">
<path d="M69.631 30.6909C70.4695 28.1655 70.7596 25.4902 70.4816 22.8438C70.2037 20.1974 69.3643 17.6407 68.0194 15.3446C66.0255 11.8741 62.9811 9.12635 59.3249 7.4976C55.6688 5.86886 51.5899 5.44324 47.6763 6.28211C45.4528 3.80887 42.6178 1.96421 39.4558 0.933398C36.2939 -0.0974115 32.9163 -0.278078 29.6625 0.409544C26.4086 1.09717 23.3929 2.62887 20.9183 4.85081C18.4438 7.07275 16.5974 9.90671 15.5647 13.068C12.9574 13.6027 10.4943 14.6877 8.33987 16.2505C6.18548 17.8134 4.38948 19.818 3.07189 22.1305C1.05637 25.5953 0.194954 29.6113 0.612172 33.5979C1.02939 37.5844 2.70363 41.335 5.39283 44.3074C4.55115 46.8316 4.25821 49.5064 4.5336 52.1529C4.809 54.7994 5.64637 57.3566 6.9897 59.6534C8.98608 63.1252 12.0332 65.8735 15.6919 67.5023C19.3506 69.131 23.432 69.5561 27.3478 68.7162C29.1143 70.7054 31.2848 72.2949 33.7144 73.3785C36.1441 74.4621 38.7769 75.0149 41.4372 74.9999C45.4486 75.0036 49.3573 73.7325 52.5993 71.3702C55.8413 69.0078 58.2487 65.6764 59.4741 61.8568C62.0811 61.3212 64.5438 60.2358 66.6981 58.673C68.8524 57.1102 70.6486 55.106 71.9669 52.794C73.9586 49.3343 74.8052 45.3334 74.3856 41.3635C73.9661 37.3936 72.3018 33.6578 69.631 30.6909ZM41.4372 70.0912C38.1519 70.0964 34.9697 68.9449 32.4485 66.8387L32.8919 66.5874L47.8241 57.9681C48.1957 57.7501 48.5043 57.4392 48.7194 57.0659C48.9346 56.6926 49.0489 56.2698 49.0513 55.839V34.7862L55.3638 38.438C55.395 38.4539 55.422 38.4768 55.4426 38.5051C55.4633 38.5333 55.4769 38.566 55.4825 38.6005V56.0462C55.4746 59.7688 53.9923 63.3366 51.36 65.9688C48.7277 68.6011 45.1598 70.0833 41.4372 70.0912ZM11.2475 57.1993C9.59993 54.3544 9.00836 51.0195 9.57689 47.7815L10.0206 48.0477L24.9675 56.6671C25.3374 56.8841 25.7584 56.9985 26.1872 56.9985C26.616 56.9985 27.0371 56.8841 27.4069 56.6671L45.6656 46.1405V53.4293C45.6639 53.4671 45.6537 53.504 45.6357 53.5373C45.6178 53.5705 45.5925 53.5993 45.5619 53.6215L30.4375 62.3443C27.2098 64.2037 23.3761 64.7063 19.7782 63.7416C16.1802 62.777 13.1121 60.424 11.2475 57.1993ZM7.31501 24.6737C8.97402 21.8105 11.5926 19.6266 14.7072 18.5087V36.2499C14.7016 36.6785 14.8111 37.1008 15.0243 37.4727C15.2375 37.8445 15.5466 38.1523 15.9194 38.364L34.0894 48.8462L27.7766 52.4977C27.7424 52.5159 27.7043 52.5254 27.6656 52.5254C27.627 52.5254 27.5889 52.5159 27.5547 52.4977L12.46 43.7899C9.23833 41.9225 6.88798 38.8544 5.92366 35.2577C4.95934 31.6609 5.45964 27.8286 7.31501 24.5999V24.6737ZM59.1785 36.723L40.9494 26.1374L47.2475 22.4999C47.2817 22.4818 47.3198 22.4723 47.3585 22.4723C47.3971 22.4723 47.4352 22.4818 47.4694 22.4999L62.5641 31.2227C64.872 32.5545 66.7536 34.5153 67.989 36.8762C69.2243 39.2371 69.7626 41.9008 69.541 44.5562C69.3193 47.2116 68.3468 49.7491 66.7371 51.8726C65.1274 53.996 62.9468 55.6177 60.45 56.5484V38.8071C60.4369 38.3792 60.3128 37.9621 60.0898 37.5967C59.8668 37.2312 59.553 36.9304 59.1785 36.723ZM65.4619 27.2759L65.0181 27.0096L50.101 18.3165C49.7288 18.0981 49.3052 17.983 48.8738 17.983C48.4423 17.983 48.0187 18.0981 47.6466 18.3165L29.4031 28.8427V21.5543C29.3993 21.5172 29.4054 21.4798 29.4211 21.446C29.4367 21.4122 29.4612 21.3832 29.4919 21.3621L44.5866 12.654C46.9001 11.3212 49.5452 10.6747 52.2126 10.7901C54.88 10.9055 57.4594 11.778 59.6492 13.3055C61.8389 14.833 63.5485 16.9525 64.5779 19.416C65.6073 21.8794 65.9141 24.5851 65.4622 27.2165L65.4619 27.2759ZM25.9578 40.1968L19.6453 36.5599C19.6137 36.5409 19.5867 36.5152 19.5662 36.4846C19.5457 36.4539 19.5322 36.4192 19.5266 36.3827V18.9818C19.53 16.3123 20.2934 13.699 21.7274 11.4474C23.1613 9.19581 25.2067 7.39894 27.6242 6.26692C30.0418 5.13489 32.7316 4.71449 35.3793 5.05486C38.027 5.39523 40.523 6.4823 42.5756 8.18899L42.1319 8.44055L27.2 17.0593C26.8284 17.2773 26.5198 17.5882 26.3047 17.9614C26.0895 18.3347 25.9752 18.7575 25.9728 19.1884L25.9578 40.1968ZM29.3878 32.8049L37.5191 28.118L45.6656 32.8049V42.178L37.5488 46.8646L29.4028 42.178L29.3878 32.8049Z" fill="#BEE9E8"/>
</g>
<defs>
<clipPath id="clip0_76_43">
<rect width="75" height="75" fill="white"/>
</clipPath>
</defs>
</svg>
