<svg width="77" height="77" viewBox="0 0 77 77" fill="none" xmlns="http://www.w3.org/2000/svg">
<path d="M0 38.5V77H77V0H0V38.5ZM62.0497 35.42C63.8939 35.848 65.5701 36.8125 66.8668 38.192C67.5807 38.9352 68.2012 39.7626 68.7148 40.656C68.7148 40.7546 65.3884 43.003 63.3618 44.2596C63.2878 44.3089 62.9922 43.9886 62.6657 43.5019C62.2957 42.8635 61.77 42.3293 61.1377 41.949C60.5054 41.5688 59.7871 41.3549 59.0498 41.3274C56.7151 41.1673 55.2121 42.3931 55.2244 44.4074C55.2051 44.909 55.3199 45.4065 55.557 45.8489C56.0683 46.9146 57.0231 47.549 60.0169 48.8426C65.5301 51.2142 67.8894 52.7789 69.3554 55.0026C70.994 57.4666 71.3574 61.446 70.2486 64.3905C69.0166 67.5937 65.9982 69.7682 61.7294 70.4889C59.7796 70.7122 57.8097 70.6915 55.865 70.4273C52.8973 69.9458 50.1596 68.5328 48.048 66.3925C47.3396 65.6102 45.9598 63.5712 46.046 63.4234C46.2709 63.2564 46.5076 63.1061 46.7544 62.9737L49.588 61.3474L51.7994 60.0662L52.2614 60.7499C53.0411 61.8652 54.0334 62.8156 55.1813 63.5466C57.6453 64.8402 61.0086 64.6615 62.6718 63.1646C63.2303 62.6161 63.5786 61.8891 63.6563 61.1102C63.734 60.3314 63.536 59.5499 63.0969 58.9019C62.4809 58.0457 61.2489 57.325 57.8054 55.8219C53.8322 54.1094 52.1198 53.0499 50.5551 51.3621C49.5783 50.2483 48.8572 48.9342 48.4422 47.5121C48.1327 45.8873 48.087 44.2234 48.3067 42.5841C49.126 38.7464 52.0027 36.0668 56.2038 35.2722C58.1494 35.0314 60.1202 35.0854 62.0497 35.4323V35.42ZM43.9762 38.6478V41.8018H33.9786V70.2794H26.8884V41.7956H16.8661V38.7156C16.8392 37.6553 16.868 36.5943 16.9523 35.537C16.9893 35.4878 23.1123 35.4631 30.5043 35.4754H43.9393L43.9762 38.6478Z" fill="#BEE9E8"/>
</svg>
