<?xml version="1.0" standalone="no"?>
<!DOCTYPE svg PUBLIC "-//W3C//DTD SVG 20010904//EN"
 "http://www.w3.org/TR/2001/REC-SVG-20010904/DTD/svg10.dtd">
<svg version="1.0" xmlns="http://www.w3.org/2000/svg"
 width="260.000000pt" height="260.000000pt" viewBox="0 0 260.000000 260.000000"
 preserveAspectRatio="xMidYMid meet">
<metadata>
Created by potrace 1.14, written by Peter Selinger 2001-2017
</metadata>
<g transform="translate(0.000000,260.000000) scale(0.100000,-0.100000)"
fill="#000000" stroke="none">
<path d="M0 1300 l0 -1300 1300 0 1300 0 0 1300 0 1300 -1300 0 -1300 0 0
-1300z m897 582 c166 -53 267 -167 320 -362 25 -91 25 -339 0 -430 -54 -199
-167 -321 -347 -375 -101 -30 -351 -29 -452 1 -17 5 -18 42 -18 584 l0 580 23
5 c119 30 377 28 474 -3z m753 -239 c47 -139 87 -254 90 -257 3 -2 45 112 94
255 l89 260 101 -3 101 -3 17 -185 c18 -207 44 -605 54 -842 l6 -158 -114 0
-113 0 2 208 c8 575 8 691 2 684 -3 -4 -37 -112 -75 -239 l-69 -233 -92 0
c-79 0 -92 2 -97 18 -3 9 -33 114 -67 232 -34 118 -64 217 -66 220 -3 3 -3
-196 -1 -443 l3 -447 -113 0 -114 0 6 118 c4 64 13 254 22 422 15 314 40 625
50 641 3 6 49 8 102 7 l97 -3 85 -252z"/>
<path d="M650 1299 l0 -402 73 5 c79 5 119 22 166 69 45 44 70 99 87 186 28
149 10 331 -44 427 -21 37 -44 60 -82 84 -48 28 -62 32 -127 32 l-73 0 0 -401z"/>
</g>
</svg>
